<svg xmlns="http://www.w3.org/2000/svg" xmlns:xlink="http://www.w3.org/1999/xlink" width="500" zoomAndPan="magnify" viewBox="0 0 375 374.999991" height="500" preserveAspectRatio="xMidYMid meet" version="1.0"><defs><g/><clipPath id="id1"><path d="M 206 364 L 210 364 L 210 368.25 L 206 368.25 Z M 206 364 " clip-rule="nonzero"/></clipPath></defs><rect x="-37.5" width="450" fill="rgb(100%, 100%, 100%)" y="-37.499999" height="449.999989" fill-opacity="1"/><rect x="-37.5" width="450" fill="rgb(0%, 0%, 0%)" y="-37.499999" height="449.999989" fill-opacity="1"/><rect x="-37.5" width="450" fill="rgb(100%, 100%, 100%)" y="-37.499999" height="449.999989" fill-opacity="1"/><rect x="-37.5" width="450" fill="rgb(0%, 0%, 0%)" y="-37.499999" height="449.999989" fill-opacity="1"/><path fill="rgb(100%, 87.059021%, 34.899902%)" d="M 329.441406 89.960938 C 320.664062 75.820312 308.226562 64.191406 294.332031 55.003906 C 280.402344 45.792969 265.015625 38.84375 249.136719 33.558594 C 233.246094 28.25 216.785156 24.625 200.152344 22.523438 C 183.554688 20.253906 166.6875 19.519531 150.042969 20.992188 L 150.03125 20.882812 C 166.644531 18.742188 183.601562 19.484375 200.300781 21.410156 C 216.984375 23.59375 233.492188 27.3125 249.417969 32.707031 C 265.324219 38.136719 280.707031 45.230469 294.613281 54.582031 C 308.480469 63.910156 320.863281 75.675781 329.539062 89.902344 L 329.441406 89.960938 " fill-opacity="1" fill-rule="nonzero"/><path fill="rgb(100%, 87.059021%, 34.899902%)" d="M 334.0625 72.269531 C 335.195312 71.378906 336.929688 71.738281 337.9375 73.074219 C 338.953125 74.40625 338.804688 76.164062 337.609375 77.003906 C 336.445312 77.808594 334.71875 77.441406 333.757812 76.175781 C 332.796875 74.910156 332.933594 73.160156 334.0625 72.269531 " fill-opacity="1" fill-rule="nonzero"/><path fill="rgb(100%, 87.059021%, 34.899902%)" d="M 256.148438 48.558594 C 256.675781 47.222656 258.148438 46.554688 259.441406 47.0625 C 260.730469 47.574219 261.28125 49.121094 260.71875 50.433594 C 260.144531 51.765625 258.710938 52.375 257.457031 51.878906 C 256.207031 51.382812 255.621094 49.898438 256.148438 48.558594 " fill-opacity="1" fill-rule="nonzero"/><path fill="rgb(100%, 87.059021%, 34.899902%)" d="M 200.53125 40.082031 C 200.652344 39.1875 201.441406 38.550781 202.292969 38.667969 C 203.144531 38.777344 203.71875 39.621094 203.582031 40.515625 C 203.445312 41.410156 202.660156 42.015625 201.824219 41.914062 C 200.984375 41.796875 200.40625 40.976562 200.53125 40.082031 " fill-opacity="1" fill-rule="nonzero"/><path fill="rgb(100%, 87.059021%, 34.899902%)" d="M 211.550781 1.332031 C 211.621094 0.886719 212.074219 0.585938 212.566406 0.667969 C 213.054688 0.746094 213.390625 1.171875 213.316406 1.617188 C 213.242188 2.066406 212.789062 2.363281 212.300781 2.28125 C 211.816406 2.203125 211.476562 1.777344 211.550781 1.332031 " fill-opacity="1" fill-rule="nonzero"/><path fill="rgb(100%, 87.059021%, 34.899902%)" d="M 154.378906 8.292969 C 154.308594 7.390625 155.050781 6.601562 156.035156 6.527344 C 157.019531 6.453125 157.859375 7.132812 157.910156 8.042969 C 157.960938 8.941406 157.21875 9.71875 156.253906 9.796875 C 155.289062 9.871094 154.453125 9.195312 154.378906 8.292969 " fill-opacity="1" fill-rule="nonzero"/><path fill="rgb(100%, 87.059021%, 34.899902%)" d="M 168.71875 32.699219 C 168.714844 32.246094 169.058594 31.867188 169.492188 31.878906 C 169.921875 31.882812 170.269531 32.253906 170.269531 32.703125 C 170.265625 33.160156 169.917969 33.519531 169.492188 33.515625 C 169.0625 33.503906 168.71875 33.152344 168.71875 32.699219 " fill-opacity="1" fill-rule="nonzero"/><path fill="rgb(100%, 87.059021%, 34.899902%)" d="M 274.308594 63.425781 C 274.527344 63.03125 274.992188 62.871094 275.347656 63.078125 C 275.703125 63.28125 275.8125 63.761719 275.589844 64.15625 C 275.363281 64.550781 274.898438 64.707031 274.542969 64.507812 C 274.195312 64.304688 274.089844 63.820312 274.308594 63.425781 " fill-opacity="1" fill-rule="nonzero"/><path fill="rgb(100%, 87.059021%, 34.899902%)" d="M 253.328125 18.121094 C 253.609375 17.261719 254.597656 16.8125 255.523438 17.117188 C 256.457031 17.414062 256.96875 18.378906 256.667969 19.238281 C 256.371094 20.085938 255.386719 20.515625 254.472656 20.222656 C 253.554688 19.917969 253.042969 18.976562 253.328125 18.121094 " fill-opacity="1" fill-rule="nonzero"/><path fill="rgb(100%, 87.059021%, 34.899902%)" d="M 306 89.246094 C 306.339844 88.949219 306.820312 88.945312 307.066406 89.230469 C 307.3125 89.515625 307.230469 89.984375 306.882812 90.269531 C 306.53125 90.5625 306.054688 90.566406 305.816406 90.285156 C 305.574219 90.007812 305.65625 89.539062 306 89.246094 " fill-opacity="1" fill-rule="nonzero"/><path fill="rgb(100%, 87.059021%, 34.899902%)" d="M 300.351562 51.628906 C 300.867188 50.886719 301.921875 50.722656 302.710938 51.269531 C 303.507812 51.796875 303.667969 52.894531 303.140625 53.613281 C 302.59375 54.351562 301.578125 54.445312 300.804688 53.933594 C 300.035156 53.402344 299.832031 52.371094 300.351562 51.628906 " fill-opacity="1" fill-rule="nonzero"/><path fill="rgb(100%, 87.059021%, 34.899902%)" d="M 150.042969 20.992188 C 147.960938 21.167969 145.917969 21.621094 143.859375 21.933594 C 141.816406 22.324219 139.726562 22.523438 137.714844 23.066406 C 133.671875 24.074219 129.589844 24.945312 125.660156 26.355469 C 117.675781 28.777344 110.066406 32.285156 102.679688 36.128906 C 88.078125 44.160156 74.6875 54.492188 63.609375 66.957031 C 57.898438 73.035156 53.027344 79.835938 48.417969 86.757812 C 46.335938 90.359375 44.003906 93.820312 42.222656 97.589844 C 41.285156 99.445312 40.300781 101.277344 39.40625 103.15625 L 36.945312 108.886719 C 36.53125 109.839844 36.078125 110.777344 35.703125 111.746094 L 34.632812 114.675781 L 32.515625 120.554688 L 30.769531 126.550781 C 30.484375 127.550781 30.171875 128.550781 29.90625 129.554688 L 27.855469 138.707031 L 26.839844 144.882812 L 26.332031 147.972656 L 25.996094 151.085938 L 25.316406 157.320312 L 25.203125 157.308594 L 25.667969 151.050781 L 25.914062 147.921875 L 26.34375 144.8125 L 27.234375 138.59375 L 28.507812 132.445312 L 29.152344 129.367188 C 29.398438 128.351562 29.699219 127.347656 29.972656 126.335938 L 31.648438 120.277344 L 33.6875 114.335938 L 34.710938 111.359375 C 35.074219 110.375 35.511719 109.425781 35.90625 108.457031 L 38.414062 102.6875 C 39.320312 100.804688 40.328125 98.960938 41.277344 97.09375 C 43.089844 93.304688 45.453125 89.828125 47.566406 86.210938 C 52.238281 79.261719 57.175781 72.445312 62.945312 66.351562 C 74.1875 53.902344 87.726562 43.625 102.441406 35.683594 C 109.886719 31.882812 117.542969 28.425781 125.566406 26.0625 C 129.515625 24.679688 133.609375 23.839844 137.667969 22.859375 C 139.691406 22.332031 141.785156 22.148438 143.832031 21.777344 C 145.902344 21.476562 147.941406 21.042969 150.03125 20.882812 L 150.042969 20.992188 " fill-opacity="1" fill-rule="nonzero"/><path fill="rgb(100%, 87.059021%, 34.899902%)" d="M 136.25 9.015625 C 135.957031 7.605469 137.027344 6.246094 138.644531 5.976562 C 140.257812 5.710938 141.746094 6.652344 141.96875 8.070312 C 142.191406 9.492188 141.117188 10.847656 139.570312 11.101562 C 138.027344 11.355469 136.539062 10.421875 136.25 9.015625 " fill-opacity="1" fill-rule="nonzero"/><path fill="rgb(100%, 87.059021%, 34.899902%)" d="M 80 66.917969 C 79.027344 65.890625 78.960938 64.214844 80.015625 63.359375 C 81.046875 62.476562 82.644531 62.640625 83.585938 63.730469 C 84.523438 64.816406 84.492188 66.382812 83.507812 67.222656 C 82.496094 68.039062 81 67.984375 80 66.917969 " fill-opacity="1" fill-rule="nonzero"/><path fill="rgb(100%, 87.059021%, 34.899902%)" d="M 53.9375 113.308594 C 53.105469 112.945312 52.691406 112.054688 53.011719 111.316406 C 53.328125 110.578125 54.246094 110.292969 55.066406 110.675781 C 55.882812 111.0625 56.300781 111.953125 55.996094 112.667969 C 55.6875 113.382812 54.765625 113.667969 53.9375 113.308594 " fill-opacity="1" fill-rule="nonzero"/><path fill="rgb(100%, 87.059021%, 34.899902%)" d="M 19.769531 91.867188 C 19.359375 91.671875 19.222656 91.132812 19.460938 90.660156 C 19.703125 90.195312 20.226562 89.976562 20.632812 90.179688 C 21.039062 90.378906 21.175781 90.921875 20.9375 91.386719 C 20.695312 91.847656 20.175781 92.066406 19.769531 91.867188 " fill-opacity="1" fill-rule="nonzero"/><path fill="rgb(100%, 87.059021%, 34.899902%)" d="M 13.605469 150.871094 C 12.703125 150.785156 12.046875 149.917969 12.140625 148.933594 C 12.234375 147.949219 13.039062 147.234375 13.9375 147.34375 C 14.835938 147.449219 15.488281 148.316406 15.402344 149.28125 C 15.3125 150.242188 14.503906 150.953125 13.605469 150.871094 " fill-opacity="1" fill-rule="nonzero"/><path fill="rgb(100%, 87.059021%, 34.899902%)" d="M 40.097656 141.109375 C 39.652344 141.03125 39.332031 140.625 39.433594 140.21875 C 39.523438 139.808594 39.953125 139.546875 40.398438 139.636719 C 40.839844 139.722656 41.132812 140.117188 41.042969 140.523438 C 40.945312 140.921875 40.542969 141.191406 40.097656 141.109375 " fill-opacity="1" fill-rule="nonzero"/><path fill="rgb(100%, 87.059021%, 34.899902%)" d="M 100.921875 57.730469 C 100.671875 57.351562 100.742188 56.871094 101.078125 56.648438 C 101.414062 56.429688 101.882812 56.558594 102.128906 56.9375 C 102.371094 57.316406 102.304688 57.800781 101.976562 58.019531 C 101.644531 58.238281 101.175781 58.105469 100.921875 57.730469 " fill-opacity="1" fill-rule="nonzero"/><path fill="rgb(100%, 87.059021%, 34.899902%)" d="M 51.136719 56.929688 C 50.460938 56.328125 50.464844 55.226562 51.148438 54.472656 C 51.828125 53.722656 52.910156 53.613281 53.570312 54.238281 C 54.226562 54.859375 54.222656 55.957031 53.558594 56.691406 C 52.894531 57.425781 51.808594 57.535156 51.136719 56.929688 " fill-opacity="1" fill-rule="nonzero"/><path fill="rgb(100%, 87.059021%, 34.899902%)" d="M 138.726562 41.789062 C 138.621094 41.347656 138.84375 40.917969 139.222656 40.828125 C 139.601562 40.734375 139.992188 41.019531 140.089844 41.457031 C 140.191406 41.898438 139.96875 42.328125 139.59375 42.417969 C 139.222656 42.511719 138.832031 42.226562 138.726562 41.789062 " fill-opacity="1" fill-rule="nonzero"/><path fill="rgb(100%, 87.059021%, 34.899902%)" d="M 102.53125 29.238281 C 102.121094 28.429688 102.488281 27.441406 103.351562 27.023438 C 104.21875 26.609375 105.234375 26.933594 105.621094 27.75 C 106.007812 28.566406 105.644531 29.558594 104.800781 29.960938 C 103.960938 30.367188 102.945312 30.042969 102.53125 29.238281 " fill-opacity="1" fill-rule="nonzero"/><path fill="rgb(100%, 87.059021%, 34.899902%)" d="M 25.316406 157.320312 C 23.542969 190.6875 31.65625 224.617188 48.761719 253.300781 C 57.203125 267.652344 68.367188 280.285156 81.359375 290.734375 C 94.203125 301.378906 108.8125 309.828125 124.105469 316.640625 L 124.0625 316.742188 C 108.484375 310.527344 93.789062 302.042969 80.648438 291.605469 C 67.617188 281.027344 56.414062 268.238281 47.984375 253.75 C 43.652344 246.5625 40.203125 238.886719 36.976562 231.160156 C 35.578125 227.207031 33.9375 223.339844 32.8125 219.296875 L 30.988281 213.28125 L 29.476562 207.179688 C 28.933594 205.152344 28.515625 203.101562 28.148438 201.039062 L 26.984375 194.863281 L 26.15625 188.636719 L 25.746094 185.523438 L 25.507812 182.390625 L 25.03125 176.132812 L 24.910156 169.851562 L 24.847656 166.714844 L 24.964844 163.582031 L 25.203125 157.308594 L 25.316406 157.320312 " fill-opacity="1" fill-rule="nonzero"/><path fill="rgb(100%, 87.059021%, 34.899902%)" d="M 11.070312 168.578125 C 9.652344 168.589844 8.390625 167.308594 8.449219 165.714844 C 8.5 164.121094 9.707031 162.863281 11.148438 162.90625 C 12.582031 162.945312 13.707031 164.226562 13.65625 165.769531 C 13.601562 167.308594 12.527344 168.566406 11.070312 168.578125 " fill-opacity="1" fill-rule="nonzero"/><path fill="rgb(100%, 87.059021%, 34.899902%)" d="M 53.535156 237.554688 C 52.246094 238.195312 50.699219 237.726562 50.082031 236.507812 C 49.496094 235.269531 50.144531 233.757812 51.445312 233.171875 C 52.765625 232.578125 54.226562 233.089844 54.789062 234.277344 C 55.386719 235.449219 54.824219 236.914062 53.535156 237.554688 " fill-opacity="1" fill-rule="nonzero"/><path fill="rgb(100%, 87.059021%, 34.899902%)" d="M 90.421875 275.644531 C 89.84375 276.339844 88.871094 276.472656 88.253906 275.9375 C 87.640625 275.410156 87.625 274.429688 88.222656 273.75 C 88.820312 273.074219 89.792969 272.941406 90.390625 273.457031 C 90.992188 273.972656 91.003906 274.953125 90.421875 275.644531 " fill-opacity="1" fill-rule="nonzero"/><path fill="rgb(100%, 87.059021%, 34.899902%)" d="M 60.253906 302.398438 C 59.953125 302.734375 59.386719 302.730469 58.992188 302.386719 C 58.597656 302.042969 58.527344 301.496094 58.832031 301.167969 C 59.140625 300.832031 59.707031 300.839844 60.097656 301.175781 C 60.488281 301.515625 60.558594 302.058594 60.253906 302.398438 " fill-opacity="1" fill-rule="nonzero"/><path fill="rgb(100%, 87.059021%, 34.899902%)" d="M 114.214844 325.574219 C 113.84375 326.402344 112.820312 326.738281 111.933594 326.332031 C 111.042969 325.925781 110.636719 324.933594 111.027344 324.117188 C 111.417969 323.300781 112.441406 322.960938 113.308594 323.359375 C 114.183594 323.757812 114.589844 324.753906 114.214844 325.574219 " fill-opacity="1" fill-rule="nonzero"/><path fill="rgb(100%, 87.059021%, 34.899902%)" d="M 113.375 297.300781 C 113.160156 297.699219 112.679688 297.859375 112.304688 297.652344 C 111.933594 297.453125 111.804688 296.96875 112.023438 296.574219 C 112.246094 296.179688 112.722656 296.015625 113.09375 296.21875 C 113.464844 296.417969 113.589844 296.902344 113.375 297.300781 " fill-opacity="1" fill-rule="nonzero"/><path fill="rgb(100%, 87.059021%, 34.899902%)" d="M 50.386719 214.558594 C 49.957031 214.699219 49.507812 214.496094 49.386719 214.101562 C 49.261719 213.710938 49.515625 213.28125 49.945312 213.148438 C 50.378906 213.011719 50.824219 213.21875 50.945312 213.605469 C 51.066406 213.992188 50.816406 214.417969 50.386719 214.558594 " fill-opacity="1" fill-rule="nonzero"/><path fill="rgb(100%, 87.059021%, 34.899902%)" d="M 35.457031 262.210938 C 34.679688 262.675781 33.640625 262.34375 33.136719 261.472656 C 32.632812 260.605469 32.863281 259.539062 33.652344 259.09375 C 34.441406 258.652344 35.480469 258.980469 35.972656 259.832031 C 36.46875 260.683594 36.234375 261.746094 35.457031 262.210938 " fill-opacity="1" fill-rule="nonzero"/><path fill="rgb(100%, 87.059021%, 34.899902%)" d="M 43.636719 172.632812 C 43.183594 172.648438 42.808594 172.335938 42.800781 171.925781 C 42.792969 171.519531 43.152344 171.183594 43.601562 171.171875 C 44.054688 171.160156 44.429688 171.476562 44.4375 171.878906 C 44.449219 172.277344 44.089844 172.617188 43.636719 172.632812 " fill-opacity="1" fill-rule="nonzero"/><path fill="rgb(100%, 87.059021%, 34.899902%)" d="M 23.195312 205.492188 C 22.308594 205.6875 21.445312 205.09375 21.265625 204.160156 C 21.085938 203.226562 21.65625 202.324219 22.546875 202.148438 C 23.433594 201.96875 24.292969 202.566406 24.472656 203.480469 C 24.652344 204.394531 24.078125 205.292969 23.195312 205.492188 " fill-opacity="1" fill-rule="nonzero"/><path fill="rgb(100%, 87.059021%, 34.899902%)" d="M 124.105469 316.640625 C 139.582031 323.082031 155.855469 327.597656 172.414062 330.136719 C 188.96875 332.660156 205.84375 333.230469 222.449219 331.421875 C 239.039062 329.640625 255.355469 325.316406 270.464844 318.332031 C 285.667969 311.5625 299.625 302.007812 311.488281 290.273438 L 311.570312 290.347656 C 300.148438 302.582031 286.089844 312.222656 270.933594 319.351562 C 255.671875 326.320312 239.230469 330.601562 222.542969 332.316406 C 205.839844 334 188.910156 333.296875 172.335938 330.636719 C 155.757812 327.964844 139.496094 323.3125 124.0625 316.742188 L 124.105469 316.640625 " fill-opacity="1" fill-rule="nonzero"/><path fill="rgb(100%, 87.059021%, 34.899902%)" d="M 129.867188 333.820312 C 129.386719 335.171875 127.808594 335.816406 126.34375 335.253906 C 124.875 334.695312 124.109375 333.152344 124.632812 331.8125 C 125.15625 330.472656 126.734375 329.832031 128.160156 330.375 C 129.582031 330.921875 130.347656 332.464844 129.867188 333.820312 " fill-opacity="1" fill-rule="nonzero"/><path fill="rgb(100%, 87.059021%, 34.899902%)" d="M 210.019531 320.589844 C 210.074219 322 209.015625 323.320312 207.632812 323.28125 C 206.253906 323.273438 205.128906 322.101562 205.121094 320.664062 C 205.113281 319.226562 206.183594 318.066406 207.519531 318.078125 C 208.851562 318.117188 209.960938 319.125 210.019531 320.589844 " fill-opacity="1" fill-rule="nonzero"/><path fill="rgb(100%, 87.059021%, 34.899902%)" d="M 260.984375 303.578125 C 261.347656 304.410156 261.046875 305.347656 260.3125 305.683594 C 259.578125 306.019531 258.707031 305.613281 258.367188 304.773438 C 258.027344 303.933594 258.324219 302.992188 259.035156 302.667969 C 259.746094 302.34375 260.621094 302.753906 260.984375 303.578125 " fill-opacity="1" fill-rule="nonzero"/><path fill="rgb(100%, 87.059021%, 34.899902%)" d="M 271.566406 342.496094 C 271.734375 342.914062 271.46875 343.40625 270.976562 343.582031 C 270.484375 343.765625 269.949219 343.570312 269.789062 343.148438 C 269.628906 342.722656 269.894531 342.238281 270.382812 342.058594 C 270.871094 341.882812 271.398438 342.078125 271.566406 342.496094 " fill-opacity="1" fill-rule="nonzero"/><path fill="rgb(100%, 87.059021%, 34.899902%)" d="M 316.082031 302.890625 C 316.707031 303.546875 316.605469 304.628906 315.863281 305.296875 C 315.121094 305.96875 314.03125 305.960938 313.429688 305.289062 C 312.828125 304.609375 312.925781 303.53125 313.648438 302.878906 C 314.375 302.226562 315.464844 302.230469 316.082031 302.890625 " fill-opacity="1" fill-rule="nonzero"/><path fill="rgb(100%, 87.059021%, 34.899902%)" d="M 289.773438 292.488281 C 290.050781 292.847656 290.007812 293.339844 289.679688 293.59375 C 289.351562 293.847656 288.867188 293.761719 288.59375 293.398438 C 288.320312 293.039062 288.363281 292.542969 288.6875 292.292969 C 289.007812 292.042969 289.496094 292.132812 289.773438 292.488281 " fill-opacity="1" fill-rule="nonzero"/><path fill="rgb(100%, 87.059021%, 34.899902%)" d="M 187.382812 314.21875 C 187.34375 314.667969 186.972656 315.011719 186.558594 314.984375 C 186.140625 314.964844 185.839844 314.550781 185.886719 314.101562 C 185.933594 313.652344 186.300781 313.335938 186.710938 313.355469 C 187.125 313.378906 187.425781 313.769531 187.382812 314.21875 " fill-opacity="1" fill-rule="nonzero"/><path fill="rgb(100%, 87.059021%, 34.899902%)" d="M 225.066406 347.1875 C 225.167969 348.085938 224.441406 348.917969 223.441406 349.046875 C 222.445312 349.191406 221.570312 348.503906 221.488281 347.597656 C 221.414062 346.703125 222.140625 345.925781 223.113281 345.785156 C 224.09375 345.660156 224.964844 346.289062 225.066406 347.1875 " fill-opacity="1" fill-rule="nonzero"/><path fill="rgb(100%, 87.059021%, 34.899902%)" d="M 144.929688 304.648438 C 144.785156 305.078125 144.351562 305.324219 143.949219 305.199219 C 143.554688 305.074219 143.351562 304.628906 143.496094 304.199219 C 143.640625 303.769531 144.078125 303.523438 144.472656 303.648438 C 144.867188 303.769531 145.070312 304.21875 144.929688 304.648438 " fill-opacity="1" fill-rule="nonzero"/><path fill="rgb(100%, 87.059021%, 34.899902%)" d="M 168.40625 335.691406 C 168.253906 336.582031 167.378906 337.164062 166.449219 336.992188 C 165.519531 336.8125 164.902344 335.949219 165.074219 335.0625 C 165.242188 334.171875 166.121094 333.59375 167.03125 333.765625 C 167.941406 333.9375 168.558594 334.800781 168.40625 335.691406 " fill-opacity="1" fill-rule="nonzero"/><path fill="rgb(100%, 87.059021%, 34.899902%)" d="M 311.488281 290.273438 C 323.152344 278.320312 332.628906 264.304688 339.601562 249.148438 C 346.5625 233.980469 351.308594 217.734375 352.757812 201.148438 C 354.320312 184.566406 352.988281 167.738281 349.078125 151.554688 C 345.367188 135.304688 338.917969 119.71875 330.375 105.375 L 330.472656 105.316406 C 339.59375 119.339844 346.101562 135.035156 350.171875 151.289062 C 354.035156 167.609375 355.296875 184.554688 353.652344 201.234375 C 352.0625 217.921875 347.160156 234.203125 340.058594 249.363281 C 332.945312 264.515625 323.332031 278.484375 311.570312 290.347656 L 311.488281 290.273438 " fill-opacity="1" fill-rule="nonzero"/><path fill="rgb(100%, 87.059021%, 34.899902%)" d="M 329.699219 291.003906 C 330.800781 291.921875 330.867188 293.6875 329.84375 294.9375 C 328.792969 296.164062 326.988281 296.296875 325.9375 295.335938 C 324.863281 294.359375 324.910156 292.691406 325.921875 291.515625 C 326.902344 290.3125 328.59375 290.082031 329.699219 291.003906 " fill-opacity="1" fill-rule="nonzero"/><path fill="rgb(100%, 87.059021%, 34.899902%)" d="M 339.597656 210.890625 C 341.011719 211.152344 342.039062 212.445312 341.683594 213.746094 C 341.367188 215.054688 339.972656 215.855469 338.570312 215.535156 C 337.167969 215.214844 336.273438 213.945312 336.578125 212.699219 C 336.921875 211.464844 338.179688 210.632812 339.597656 210.890625 " fill-opacity="1" fill-rule="nonzero"/><path fill="rgb(100%, 87.059021%, 34.899902%)" d="M 332.800781 157.972656 C 333.683594 157.777344 334.566406 158.257812 334.761719 159.046875 C 334.894531 159.851562 334.28125 160.648438 333.390625 160.820312 C 332.503906 160.996094 331.675781 160.503906 331.550781 159.71875 C 331.363281 158.949219 331.914062 158.167969 332.800781 157.972656 " fill-opacity="1" fill-rule="nonzero"/><path fill="rgb(100%, 87.059021%, 34.899902%)" d="M 372.960938 155.128906 C 373.402344 155.042969 373.835938 155.394531 373.925781 155.90625 C 374.015625 156.421875 373.722656 156.902344 373.277344 156.976562 C 372.832031 157.054688 372.402344 156.707031 372.3125 156.199219 C 372.222656 155.6875 372.515625 155.210938 372.960938 155.128906 " fill-opacity="1" fill-rule="nonzero"/><path fill="rgb(100%, 87.059021%, 34.899902%)" d="M 343.753906 103.789062 C 344.535156 103.335938 345.59375 103.65625 346.105469 104.503906 C 346.605469 105.359375 346.292969 106.445312 345.507812 106.875 C 344.703125 107.3125 343.742188 106.941406 343.25 106.109375 C 342.742188 105.28125 342.96875 104.242188 343.753906 103.789062 " fill-opacity="1" fill-rule="nonzero"/><path fill="rgb(100%, 87.059021%, 34.899902%)" d="M 327.777344 127.074219 C 328.179688 126.882812 328.695312 127.019531 328.84375 127.414062 C 329.003906 127.800781 328.800781 128.265625 328.390625 128.453125 C 327.972656 128.636719 327.511719 128.480469 327.355469 128.097656 C 327.210938 127.707031 327.359375 127.265625 327.777344 127.074219 " fill-opacity="1" fill-rule="nonzero"/><path fill="rgb(100%, 87.059021%, 34.899902%)" d="M 328.199219 230.738281 C 328.625 230.894531 328.84375 231.324219 328.6875 231.703125 C 328.539062 232.078125 328.066406 232.253906 327.644531 232.09375 C 327.222656 231.933594 327.003906 231.503906 327.152344 231.132812 C 327.304688 230.765625 327.773438 230.589844 328.199219 230.738281 " fill-opacity="1" fill-rule="nonzero"/><path fill="rgb(100%, 87.059021%, 34.899902%)" d="M 368.730469 201.730469 C 369.632812 201.816406 370.304688 202.703125 370.234375 203.71875 C 370.191406 204.734375 369.269531 205.460938 368.390625 205.359375 C 367.46875 205.25 366.929688 204.371094 366.972656 203.382812 C 367.042969 202.390625 367.828125 201.652344 368.730469 201.730469 " fill-opacity="1" fill-rule="nonzero"/><path fill="rgb(100%, 87.059021%, 34.899902%)" d="M 307.464844 266.90625 C 307.820312 267.179688 307.90625 267.65625 307.652344 267.964844 C 307.402344 268.273438 306.914062 268.289062 306.5625 268.007812 C 306.207031 267.722656 306.125 267.246094 306.371094 266.945312 C 306.617188 266.640625 307.109375 266.621094 307.464844 266.90625 " fill-opacity="1" fill-rule="nonzero"/><path fill="rgb(100%, 87.059021%, 34.899902%)" d="M 343.847656 254.550781 C 344.664062 254.941406 344.980469 255.957031 344.5625 256.8125 C 344.140625 257.671875 343.144531 258.03125 342.339844 257.617188 C 341.535156 257.199219 341.21875 256.183594 341.628906 255.347656 C 342.042969 254.511719 343.035156 254.152344 343.847656 254.550781 " fill-opacity="1" fill-rule="nonzero"/><path fill="rgb(100%, 87.059021%, 34.899902%)" d="M 330.375 105.375 C 321.496094 91.238281 310.246094 78.574219 297.03125 68.414062 C 293.722656 65.890625 290.191406 63.671875 286.785156 61.28125 C 285.019531 60.183594 283.183594 59.191406 281.386719 58.140625 L 278.675781 56.589844 L 275.871094 55.207031 C 268.484375 51.347656 260.628906 48.441406 252.691406 45.929688 C 244.734375 43.417969 236.527344 41.808594 228.292969 40.527344 C 220.019531 39.445312 211.679688 38.882812 203.332031 38.9375 C 186.636719 38.957031 169.9375 41.320312 153.816406 45.828125 L 153.78125 45.71875 C 169.746094 40.570312 186.546875 38.1875 203.324219 37.8125 C 211.726562 37.796875 220.117188 38.402344 228.433594 39.53125 C 236.714844 40.855469 244.964844 42.507812 252.953125 45.074219 C 260.921875 47.65625 268.792969 50.644531 276.1875 54.578125 L 278.996094 55.992188 L 281.707031 57.570312 C 283.503906 58.640625 285.339844 59.652344 287.105469 60.769531 C 290.507812 63.199219 294.042969 65.457031 297.339844 68.015625 C 310.523438 78.316406 321.699219 91.097656 330.472656 105.316406 L 330.375 105.375 " fill-opacity="1" fill-rule="nonzero"/><path fill="rgb(100%, 87.059021%, 34.899902%)" d="M 335.375 87.871094 C 336.535156 87.019531 338.238281 87.382812 339.183594 88.691406 C 340.125 89.992188 339.921875 91.707031 338.730469 92.511719 C 337.535156 93.316406 335.835938 92.949219 334.925781 91.691406 C 334.019531 90.4375 334.21875 88.726562 335.375 87.871094 " fill-opacity="1" fill-rule="nonzero"/><path fill="rgb(100%, 87.059021%, 34.899902%)" d="M 259.679688 60.761719 C 260.207031 59.425781 261.648438 58.773438 262.890625 59.300781 C 264.140625 59.828125 264.675781 61.320312 264.085938 62.632812 C 263.503906 63.945312 262.0625 64.605469 260.875 64.101562 C 259.683594 63.597656 259.152344 62.101562 259.679688 60.761719 " fill-opacity="1" fill-rule="nonzero"/><path fill="rgb(100%, 87.059021%, 34.899902%)" d="M 205.949219 56.316406 C 205.957031 55.414062 206.628906 54.6875 207.457031 54.699219 C 208.285156 54.710938 208.929688 55.449219 208.902344 56.355469 C 208.878906 57.257812 208.199219 57.984375 207.394531 57.972656 C 206.589844 57.964844 205.941406 57.222656 205.949219 56.316406 " fill-opacity="1" fill-rule="nonzero"/><path fill="rgb(100%, 87.059021%, 34.899902%)" d="M 212.101562 16.449219 C 212.121094 15.996094 212.550781 15.65625 213.066406 15.6875 C 213.582031 15.71875 213.980469 16.113281 213.957031 16.566406 C 213.9375 17.015625 213.507812 17.355469 212.996094 17.324219 C 212.484375 17.292969 212.085938 16.898438 212.101562 16.449219 " fill-opacity="1" fill-rule="nonzero"/><path fill="rgb(100%, 87.059021%, 34.899902%)" d="M 155.789062 32.515625 C 155.558594 31.644531 156.140625 30.746094 157.09375 30.515625 C 158.050781 30.285156 158.996094 30.808594 159.210938 31.6875 C 159.421875 32.570312 158.839844 33.464844 157.902344 33.691406 C 156.96875 33.917969 156.019531 33.390625 155.789062 32.515625 " fill-opacity="1" fill-rule="nonzero"/><path fill="rgb(100%, 87.059021%, 34.899902%)" d="M 174.285156 53.980469 C 174.203125 53.535156 174.476562 53.109375 174.890625 53.03125 C 175.308594 52.953125 175.710938 53.25 175.789062 53.695312 C 175.867188 54.140625 175.59375 54.5625 175.183594 54.640625 C 174.769531 54.722656 174.367188 54.425781 174.285156 53.980469 " fill-opacity="1" fill-rule="nonzero"/><path fill="rgb(100%, 87.059021%, 34.899902%)" d="M 276.761719 75.738281 C 276.992188 75.355469 277.484375 75.1875 277.796875 75.421875 C 278.121094 75.648438 278.183594 76.140625 277.945312 76.523438 C 277.699219 76.902344 277.246094 77.03125 276.925781 76.8125 C 276.617188 76.578125 276.519531 76.128906 276.761719 75.738281 " fill-opacity="1" fill-rule="nonzero"/><path fill="rgb(100%, 87.059021%, 34.899902%)" d="M 256.472656 30.394531 C 256.730469 29.53125 257.730469 29.054688 258.699219 29.339844 C 259.675781 29.609375 260.226562 30.570312 259.941406 31.441406 C 259.660156 32.292969 258.671875 32.730469 257.71875 32.464844 C 256.769531 32.191406 256.210938 31.261719 256.472656 30.394531 " fill-opacity="1" fill-rule="nonzero"/><path fill="rgb(100%, 87.059021%, 34.899902%)" d="M 306.761719 103.679688 C 307.117188 103.394531 307.59375 103.433594 307.828125 103.757812 C 308.058594 104.082031 307.957031 104.570312 307.597656 104.84375 C 307.238281 105.121094 306.761719 105.082031 306.53125 104.765625 C 306.304688 104.441406 306.40625 103.957031 306.761719 103.679688 " fill-opacity="1" fill-rule="nonzero"/><path fill="rgb(100%, 87.059021%, 34.899902%)" d="M 303.230469 65.511719 C 303.796875 64.804688 304.855469 64.730469 305.59375 65.34375 C 306.335938 65.960938 306.457031 67.015625 305.871094 67.703125 C 305.28125 68.390625 304.222656 68.464844 303.503906 67.867188 C 302.785156 67.269531 302.664062 66.21875 303.230469 65.511719 " fill-opacity="1" fill-rule="nonzero"/><path fill="rgb(100%, 87.059021%, 34.899902%)" d="M 153.816406 45.828125 C 137.757812 50.824219 121.710938 56.242188 106.195312 62.644531 C 98.445312 65.882812 90.863281 69.476562 83.503906 73.449219 C 76.242188 77.574219 69.128906 81.980469 62.636719 87.183594 C 60.945312 88.394531 59.472656 89.867188 57.878906 91.191406 C 56.304688 92.542969 54.734375 93.898438 53.328125 95.417969 C 51.886719 96.90625 50.398438 98.351562 48.996094 99.867188 L 45.03125 104.632812 C 39.953125 111.1875 35.726562 118.183594 32.289062 125.875 C 25.023438 140.9375 19.488281 156.875 17.28125 173.398438 L 17.167969 173.386719 C 18.722656 156.738281 24.296875 140.660156 31.269531 125.398438 C 34.75 117.707031 39.085938 110.585938 44.242188 104.007812 L 48.265625 99.207031 C 49.691406 97.679688 51.195312 96.230469 52.65625 94.738281 C 54.085938 93.210938 55.671875 91.847656 57.269531 90.496094 C 58.882812 89.167969 60.371094 87.6875 62.085938 86.476562 C 68.664062 81.289062 75.847656 76.917969 83.167969 72.835938 C 90.582031 68.898438 98.214844 65.359375 106 62.175781 C 121.59375 55.886719 137.679688 50.59375 153.78125 45.71875 L 153.816406 45.828125 " fill-opacity="1" fill-rule="nonzero"/><path fill="rgb(100%, 87.059021%, 34.899902%)" d="M 138.742188 35.910156 C 138.296875 34.542969 139.070312 33.066406 140.472656 32.613281 C 141.871094 32.160156 143.367188 32.902344 143.804688 34.269531 C 144.25 35.640625 143.472656 37.117188 142.078125 37.566406 C 140.683594 38.015625 139.1875 37.277344 138.742188 35.910156 " fill-opacity="1" fill-rule="nonzero"/><path fill="rgb(100%, 87.059021%, 34.899902%)" d="M 78.796875 90.007812 C 78.003906 88.808594 78.28125 87.230469 79.414062 86.480469 C 80.523438 85.714844 82.128906 86.207031 82.855469 87.421875 C 83.613281 88.667969 83.242188 90.152344 82.183594 90.890625 C 81.105469 91.605469 79.585938 91.207031 78.796875 90.007812 " fill-opacity="1" fill-rule="nonzero"/><path fill="rgb(100%, 87.059021%, 34.899902%)" d="M 49.121094 130.917969 C 48.304688 130.527344 47.941406 129.585938 48.3125 128.816406 C 48.683594 128.050781 49.636719 127.75 50.445312 128.191406 C 51.253906 128.5625 51.617188 129.507812 51.253906 130.265625 C 50.890625 131.019531 49.9375 131.3125 49.121094 130.917969 " fill-opacity="1" fill-rule="nonzero"/><path fill="rgb(100%, 87.059021%, 34.899902%)" d="M 15.820312 108.277344 C 15.421875 108.0625 15.320312 107.492188 15.59375 106.996094 C 15.867188 106.507812 16.414062 106.285156 16.808594 106.503906 C 17.207031 106.722656 17.308594 107.292969 17.035156 107.777344 C 16.765625 108.261719 16.222656 108.484375 15.820312 108.277344 " fill-opacity="1" fill-rule="nonzero"/><path fill="rgb(100%, 87.059021%, 34.899902%)" d="M 5.910156 166.246094 C 5.015625 166.105469 4.421875 165.183594 4.589844 164.1875 C 4.761719 163.1875 5.617188 162.515625 6.507812 162.6875 C 7.398438 162.855469 7.984375 163.777344 7.820312 164.746094 C 7.65625 165.710938 6.804688 166.382812 5.910156 166.246094 " fill-opacity="1" fill-rule="nonzero"/><path fill="rgb(100%, 87.059021%, 34.899902%)" d="M 33.074219 158.449219 C 32.632812 158.332031 32.367188 157.914062 32.488281 157.511719 C 32.601562 157.109375 33.050781 156.886719 33.488281 157.007812 C 33.921875 157.132812 34.183594 157.550781 34.066406 157.945312 C 33.953125 158.339844 33.507812 158.566406 33.074219 158.449219 " fill-opacity="1" fill-rule="nonzero"/><path fill="rgb(100%, 87.059021%, 34.899902%)" d="M 101.421875 84.035156 C 101.230469 83.628906 101.382812 83.152344 101.765625 82.972656 C 102.148438 82.792969 102.613281 82.976562 102.804688 83.390625 C 102.996094 83.796875 102.84375 84.273438 102.464844 84.453125 C 102.085938 84.628906 101.617188 84.445312 101.421875 84.035156 " fill-opacity="1" fill-rule="nonzero"/><path fill="rgb(100%, 87.059021%, 34.899902%)" d="M 51.964844 75.226562 C 51.398438 74.523438 51.605469 73.445312 52.425781 72.824219 C 53.246094 72.207031 54.355469 72.289062 54.902344 73.015625 C 55.445312 73.734375 55.238281 74.808594 54.4375 75.414062 C 53.640625 76.015625 52.53125 75.933594 51.964844 75.226562 " fill-opacity="1" fill-rule="nonzero"/><path fill="rgb(100%, 87.059021%, 34.899902%)" d="M 144.292969 68.242188 C 144.148438 67.816406 144.382812 67.351562 144.804688 67.210938 C 145.234375 67.066406 145.695312 67.304688 145.832031 67.734375 C 145.976562 68.164062 145.746094 68.625 145.320312 68.765625 C 144.894531 68.910156 144.433594 68.671875 144.292969 68.242188 " fill-opacity="1" fill-rule="nonzero"/><path fill="rgb(100%, 87.059021%, 34.899902%)" d="M 106.679688 55.769531 C 106.335938 54.929688 106.769531 53.96875 107.640625 53.628906 C 108.511719 53.285156 109.484375 53.695312 109.8125 54.535156 C 110.140625 55.378906 109.710938 56.335938 108.847656 56.675781 C 107.988281 57.015625 107.015625 56.605469 106.679688 55.769531 " fill-opacity="1" fill-rule="nonzero"/><path fill="rgb(100%, 87.059021%, 34.899902%)" d="M 17.28125 173.398438 C 16.367188 181.679688 16.410156 190.03125 17.160156 198.351562 C 17.617188 202.53125 18.011719 206.714844 18.515625 210.882812 C 19.152344 215.027344 19.601562 219.210938 20.390625 223.328125 C 23.28125 239.804688 27.851562 256.078125 35.914062 270.628906 C 43.824219 285.257812 55.132812 297.785156 67.734375 308.769531 C 70.785156 311.628906 74.09375 314.230469 77.273438 316.957031 C 80.589844 319.519531 83.808594 322.285156 87.210938 324.683594 C 90.605469 327.109375 93.914062 329.671875 97.511719 331.796875 L 102.808594 335.144531 L 108.304688 338.148438 L 108.25 338.246094 C 93.207031 330.917969 79.765625 320.539062 66.992188 309.609375 C 60.613281 304.113281 54.761719 298.066406 49.289062 291.730469 C 43.800781 285.386719 39.167969 278.363281 35.125 271.058594 C 27.117188 256.328125 22.664062 239.945312 19.890625 223.410156 C 19.132812 219.28125 18.714844 215.089844 18.113281 210.929688 C 17.640625 206.753906 17.277344 202.5625 16.851562 198.378906 C 16.164062 190.035156 16.1875 181.667969 17.167969 173.386719 L 17.28125 173.398438 " fill-opacity="1" fill-rule="nonzero"/><path fill="rgb(100%, 87.059021%, 34.899902%)" d="M 2.597656 184.265625 C 1.167969 184.246094 -0.0078125 182.898438 0.0664062 181.25 C 0.152344 179.605469 1.390625 178.347656 2.824219 178.441406 C 4.257812 178.539062 5.355469 179.886719 5.273438 181.460938 C 5.199219 183.027344 4.046875 184.285156 2.597656 184.265625 " fill-opacity="1" fill-rule="nonzero"/><path fill="rgb(100%, 87.059021%, 34.899902%)" d="M 41.515625 255.3125 C 40.195312 255.875 38.675781 255.347656 38.152344 254.117188 C 37.699219 252.847656 38.421875 251.414062 39.769531 250.917969 C 41.121094 250.414062 42.566406 250.988281 42.996094 252.195312 C 43.492188 253.359375 42.839844 254.746094 41.515625 255.3125 " fill-opacity="1" fill-rule="nonzero"/><path fill="rgb(100%, 87.059021%, 34.899902%)" d="M 77.300781 294.050781 C 76.691406 294.722656 75.691406 294.8125 75.058594 294.246094 C 74.425781 293.679688 74.417969 292.6875 75.035156 292.027344 C 75.652344 291.367188 76.65625 291.28125 77.277344 291.832031 C 77.898438 292.386719 77.90625 293.378906 77.300781 294.050781 " fill-opacity="1" fill-rule="nonzero"/><path fill="rgb(100%, 87.059021%, 34.899902%)" d="M 46.296875 319.820312 C 45.988281 320.148438 45.433594 320.125 45.066406 319.765625 C 44.703125 319.410156 44.660156 318.851562 44.972656 318.527344 C 45.289062 318.203125 45.839844 318.226562 46.203125 318.585938 C 46.566406 318.9375 46.609375 319.492188 46.296875 319.820312 " fill-opacity="1" fill-rule="nonzero"/><path fill="rgb(100%, 87.059021%, 34.899902%)" d="M 97.632812 346.375 C 97.199219 347.148438 96.101562 347.460938 95.261719 346.933594 C 94.417969 346.414062 94.101562 345.363281 94.566406 344.582031 C 95.023438 343.804688 96.066406 343.582031 96.894531 344.089844 C 97.714844 344.605469 98.082031 345.566406 97.632812 346.375 " fill-opacity="1" fill-rule="nonzero"/><path fill="rgb(100%, 87.059021%, 34.899902%)" d="M 99.417969 318.132812 C 99.164062 318.511719 98.679688 318.617188 98.339844 318.371094 C 97.996094 318.125 97.921875 317.628906 98.183594 317.253906 C 98.441406 316.882812 98.921875 316.777344 99.265625 317.015625 C 99.601562 317.261719 99.671875 317.761719 99.417969 318.132812 " fill-opacity="1" fill-rule="nonzero"/><path fill="rgb(100%, 87.059021%, 34.899902%)" d="M 40.226562 232.441406 C 39.78125 232.546875 39.351562 232.304688 39.257812 231.902344 C 39.164062 231.5 39.445312 231.09375 39.882812 230.992188 C 40.328125 230.890625 40.761719 231.132812 40.855469 231.53125 C 40.945312 231.929688 40.664062 232.335938 40.226562 232.441406 " fill-opacity="1" fill-rule="nonzero"/><path fill="rgb(100%, 87.059021%, 34.899902%)" d="M 22.339844 279.140625 C 21.546875 279.582031 20.515625 279.191406 20.03125 278.269531 C 19.546875 277.347656 19.8125 276.265625 20.617188 275.851562 C 21.421875 275.4375 22.453125 275.828125 22.921875 276.726562 C 23.390625 277.621094 23.128906 278.699219 22.339844 279.140625 " fill-opacity="1" fill-rule="nonzero"/><path fill="rgb(100%, 87.059021%, 34.899902%)" d="M 35.066406 188.875 C 34.613281 188.886719 34.242188 188.578125 34.234375 188.1875 C 34.230469 187.800781 34.585938 187.480469 35.042969 187.476562 C 35.496094 187.472656 35.867188 187.785156 35.871094 188.164062 C 35.878906 188.546875 35.515625 188.867188 35.066406 188.875 " fill-opacity="1" fill-rule="nonzero"/><path fill="rgb(100%, 87.059021%, 34.899902%)" d="M 13.757812 221.324219 C 12.863281 221.464844 12.035156 220.824219 11.90625 219.894531 C 11.777344 218.964844 12.402344 218.109375 13.296875 217.980469 C 14.191406 217.847656 15.019531 218.488281 15.148438 219.40625 C 15.273438 220.324219 14.65625 221.183594 13.757812 221.324219 " fill-opacity="1" fill-rule="nonzero"/><path fill="rgb(100%, 87.059021%, 34.899902%)" d="M 108.304688 338.148438 C 123.136719 345.863281 139.398438 350.597656 155.953125 352.605469 C 158.015625 352.945312 160.097656 353.050781 162.183594 353.195312 C 164.261719 353.324219 166.34375 353.523438 168.425781 353.59375 C 172.597656 353.5625 176.773438 353.820312 180.945312 353.480469 L 187.199219 353.152344 L 193.429688 352.480469 C 197.597656 352.140625 201.699219 351.257812 205.832031 350.652344 C 214.042969 349.050781 222.207031 347.167969 230.203125 344.65625 L 236.203125 342.792969 L 242.09375 340.667969 C 246.066406 339.355469 249.835938 337.535156 253.695312 335.957031 C 268.984375 329.253906 283.171875 320.140625 295.824219 309.230469 L 295.898438 309.3125 C 283.664062 320.742188 269.382812 329.921875 254.15625 336.976562 C 250.261719 338.554688 246.464844 340.367188 242.464844 341.667969 L 236.527344 343.78125 L 230.496094 345.621094 C 222.457031 348.105469 214.242188 349.96875 205.992188 351.535156 C 201.832031 352.113281 197.707031 352.964844 193.519531 353.273438 L 187.257812 353.902344 L 180.972656 354.179688 C 176.785156 354.484375 172.59375 354.199219 168.402344 354.195312 C 166.3125 354.105469 164.226562 353.890625 162.136719 353.746094 C 160.050781 353.585938 157.957031 353.460938 155.890625 353.109375 C 139.296875 350.964844 123.035156 346.085938 108.25 338.246094 L 108.304688 338.148438 " fill-opacity="1" fill-rule="nonzero"/><path fill="rgb(100%, 87.059021%, 34.899902%)" d="M 113.019531 355.75 C 112.46875 357.082031 110.824219 357.632812 109.347656 356.984375 C 107.867188 356.335938 107.164062 354.75 107.769531 353.449219 C 108.382812 352.144531 110.023438 351.59375 111.445312 352.21875 C 112.871094 352.84375 113.574219 354.421875 113.019531 355.75 " fill-opacity="1" fill-rule="nonzero"/><path fill="rgb(100%, 87.059021%, 34.899902%)" d="M 192.578125 340.777344 C 192.746094 342.203125 191.777344 343.476562 190.410156 343.621094 C 189.042969 343.761719 187.839844 342.71875 187.722656 341.285156 C 187.601562 339.851562 188.574219 338.578125 189.886719 338.4375 C 191.203125 338.300781 192.410156 339.347656 192.578125 340.777344 " fill-opacity="1" fill-rule="nonzero"/><path fill="rgb(100%, 87.059021%, 34.899902%)" d="M 244.265625 321.109375 C 244.625 321.941406 244.296875 322.875 243.535156 323.195312 C 242.773438 323.519531 241.878906 323.101562 241.539062 322.261719 C 241.195312 321.425781 241.523438 320.488281 242.265625 320.171875 C 243.007812 319.859375 243.902344 320.277344 244.265625 321.109375 " fill-opacity="1" fill-rule="nonzero"/><path fill="rgb(100%, 87.059021%, 34.899902%)" d="M 254.765625 360.042969 C 254.933594 360.460938 254.6875 360.964844 254.210938 361.164062 C 253.738281 361.363281 253.207031 361.144531 253.046875 360.726562 C 252.882812 360.296875 253.144531 359.835938 253.613281 359.640625 C 254.085938 359.441406 254.597656 359.621094 254.765625 360.042969 " fill-opacity="1" fill-rule="nonzero"/><path fill="rgb(100%, 87.059021%, 34.899902%)" d="M 299.695312 322.046875 C 300.28125 322.734375 300.136719 323.8125 299.375 324.445312 C 298.613281 325.082031 297.535156 325.023438 296.96875 324.320312 C 296.402344 323.613281 296.546875 322.539062 297.292969 321.917969 C 298.035156 321.296875 299.109375 321.355469 299.695312 322.046875 " fill-opacity="1" fill-rule="nonzero"/><path fill="rgb(100%, 87.059021%, 34.899902%)" d="M 273.921875 310.457031 C 274.183594 310.828125 274.121094 311.332031 273.78125 311.582031 C 273.453125 311.835938 272.960938 311.722656 272.699219 311.347656 C 272.445312 310.980469 272.515625 310.492188 272.84375 310.238281 C 273.179688 309.992188 273.660156 310.089844 273.921875 310.457031 " fill-opacity="1" fill-rule="nonzero"/><path fill="rgb(100%, 87.059021%, 34.899902%)" d="M 169.910156 336.039062 C 169.894531 336.492188 169.554688 336.855469 169.148438 336.851562 C 168.742188 336.851562 168.429688 336.480469 168.449219 336.019531 C 168.46875 335.574219 168.808594 335.21875 169.210938 335.21875 C 169.613281 335.21875 169.925781 335.589844 169.910156 336.039062 " fill-opacity="1" fill-rule="nonzero"/><g clip-path="url(#id1)"><path fill="rgb(100%, 87.059021%, 34.899902%)" d="M 209.613281 366.210938 C 209.78125 367.113281 209.121094 367.960938 208.136719 368.113281 C 207.15625 368.273438 206.242188 367.675781 206.09375 366.78125 C 205.945312 365.890625 206.609375 365.042969 207.570312 364.890625 C 208.53125 364.734375 209.449219 365.335938 209.613281 366.210938 " fill-opacity="1" fill-rule="nonzero"/></g><path fill="rgb(100%, 87.059021%, 34.899902%)" d="M 129.417969 327.367188 C 129.257812 327.792969 128.824219 328.027344 128.449219 327.898438 C 128.074219 327.761719 127.90625 327.316406 128.074219 326.894531 C 128.238281 326.472656 128.671875 326.238281 129.042969 326.367188 C 129.410156 326.496094 129.578125 326.945312 129.417969 327.367188 " fill-opacity="1" fill-rule="nonzero"/><path fill="rgb(100%, 87.059021%, 34.899902%)" d="M 152.109375 358.320312 C 151.980469 359.214844 151.109375 359.835938 150.160156 359.703125 C 149.214844 359.570312 148.566406 358.738281 148.71875 357.847656 C 148.867188 356.953125 149.738281 356.339844 150.664062 356.464844 C 151.589844 356.59375 152.234375 357.425781 152.109375 358.320312 " fill-opacity="1" fill-rule="nonzero"/><path fill="rgb(100%, 87.059021%, 34.899902%)" d="M 295.824219 309.230469 C 308.117188 297.910156 318.769531 284.792969 327.0625 270.269531 C 335.417969 255.8125 342.039062 240.234375 346.367188 224.128906 C 350.679688 208.035156 352.550781 191.226562 350.945312 174.699219 C 349.511719 158.132812 344.535156 141.992188 338.027344 126.570312 L 338.128906 126.523438 C 345.253906 141.703125 350.265625 157.929688 352.0625 174.59375 C 353.609375 191.285156 351.644531 208.203125 347.234375 224.367188 C 342.753906 240.527344 335.992188 256.085938 327.5 270.523438 C 319.070312 285.023438 308.289062 298.085938 295.898438 309.3125 L 295.824219 309.230469 " fill-opacity="1" fill-rule="nonzero"/><path fill="rgb(100%, 87.059021%, 34.899902%)" d="M 313.902344 311.105469 C 314.945312 312.097656 314.902344 313.847656 313.800781 315.011719 C 312.664062 316.140625 310.894531 316.175781 309.902344 315.148438 C 308.890625 314.109375 309.007812 312.429688 310.105469 311.34375 C 311.164062 310.21875 312.867188 310.109375 313.902344 311.105469 " fill-opacity="1" fill-rule="nonzero"/><path fill="rgb(100%, 87.059021%, 34.899902%)" d="M 331.777344 231.78125 C 333.132812 232.25 333.894531 233.683594 333.40625 234.976562 C 332.902344 236.265625 331.402344 236.898438 330.0625 236.386719 C 328.71875 235.875 328.023438 234.445312 328.507812 233.195312 C 328.984375 231.945312 330.410156 231.316406 331.777344 231.78125 " fill-opacity="1" fill-rule="nonzero"/><path fill="rgb(100%, 87.059021%, 34.899902%)" d="M 333.851562 178.703125 C 334.75 178.636719 335.546875 179.210938 335.589844 180 C 335.625 180.789062 334.917969 181.460938 334.015625 181.5 C 333.109375 181.539062 332.347656 180.953125 332.316406 180.195312 C 332.273438 179.433594 332.945312 178.769531 333.851562 178.703125 " fill-opacity="1" fill-rule="nonzero"/><path fill="rgb(100%, 87.059021%, 34.899902%)" d="M 374.042969 181.839844 C 374.496094 181.828125 374.878906 182.25 374.878906 182.785156 C 374.890625 183.320312 374.527344 183.757812 374.074219 183.765625 C 373.625 183.773438 373.25 183.351562 373.242188 182.824219 C 373.238281 182.292969 373.59375 181.855469 374.042969 181.839844 " fill-opacity="1" fill-rule="nonzero"/><path fill="rgb(100%, 87.059021%, 34.899902%)" d="M 351.441406 126.777344 C 352.277344 126.433594 353.269531 126.871094 353.628906 127.777344 C 353.988281 128.6875 353.589844 129.695312 352.75 130.023438 C 351.90625 130.355469 350.941406 129.898438 350.589844 129.007812 C 350.234375 128.117188 350.601562 127.125 351.441406 126.777344 " fill-opacity="1" fill-rule="nonzero"/><path fill="rgb(100%, 87.059021%, 34.899902%)" d="M 332.699219 147.960938 C 333.128906 147.824219 333.582031 148.03125 333.714844 148.433594 C 333.847656 148.835938 333.609375 149.269531 333.175781 149.40625 C 332.746094 149.546875 332.289062 149.335938 332.15625 148.9375 C 332.027344 148.542969 332.269531 148.105469 332.699219 147.960938 " fill-opacity="1" fill-rule="nonzero"/><path fill="rgb(100%, 87.059021%, 34.899902%)" d="M 317.636719 250.644531 C 318.042969 250.84375 318.21875 251.304688 318.03125 251.675781 C 317.839844 252.042969 317.363281 252.175781 316.960938 251.972656 C 316.554688 251.769531 316.378906 251.308594 316.566406 250.941406 C 316.753906 250.578125 317.230469 250.445312 317.636719 250.644531 " fill-opacity="1" fill-rule="nonzero"/><path fill="rgb(100%, 87.059021%, 34.899902%)" d="M 362.046875 227.363281 C 362.921875 227.59375 363.421875 228.566406 363.15625 229.535156 C 362.898438 230.507812 361.972656 231.089844 361.09375 230.839844 C 360.230469 230.589844 359.738281 229.617188 359.996094 228.667969 C 360.253906 227.71875 361.171875 227.136719 362.046875 227.363281 " fill-opacity="1" fill-rule="nonzero"/><path fill="rgb(100%, 87.059021%, 34.899902%)" d="M 293.386719 285.546875 C 293.722656 285.851562 293.769531 286.335938 293.492188 286.628906 C 293.21875 286.921875 292.722656 286.910156 292.390625 286.605469 C 292.058594 286.296875 292.011719 285.8125 292.285156 285.523438 C 292.558594 285.234375 293.050781 285.242188 293.386719 285.546875 " fill-opacity="1" fill-rule="nonzero"/><path fill="rgb(100%, 87.059021%, 34.899902%)" d="M 330.851562 276.085938 C 331.613281 276.550781 331.886719 277.617188 331.347656 278.402344 C 330.828125 279.199219 329.785156 279.449219 329.023438 278.960938 C 328.261719 278.476562 328.058594 277.449219 328.566406 276.667969 C 329.089844 275.902344 330.070312 275.613281 330.851562 276.085938 " fill-opacity="1" fill-rule="nonzero"/><path fill="rgb(100%, 87.059021%, 34.899902%)" d="M 338.027344 126.570312 C 334.597656 118.921875 330.734375 111.457031 326.582031 104.15625 C 325.570312 102.304688 324.457031 100.539062 323.355469 98.765625 C 322.238281 97.003906 321.199219 95.195312 320.019531 93.46875 C 317.578125 90.085938 315.304688 86.578125 312.601562 83.394531 C 307.503906 76.773438 301.628906 70.800781 295.554688 65.09375 C 292.398438 62.371094 289.332031 59.535156 285.960938 57.070312 C 284.289062 55.828125 282.707031 54.460938 280.964844 53.3125 L 275.796875 49.789062 C 268.789062 45.289062 261.523438 41.140625 253.851562 37.890625 C 250.085938 36.101562 246.136719 34.773438 242.234375 33.328125 C 240.289062 32.597656 238.257812 32.117188 236.269531 31.496094 C 234.273438 30.925781 232.292969 30.261719 230.25 29.875 L 224.175781 28.449219 C 222.144531 28.003906 220.078125 27.757812 218.027344 27.402344 C 213.9375 26.605469 209.769531 26.460938 205.628906 26.035156 C 197.296875 25.558594 188.902344 25.671875 180.539062 26.191406 L 180.53125 26.078125 C 188.875 25.230469 197.289062 24.949219 205.667969 25.304688 C 209.832031 25.664062 214.03125 25.761719 218.160156 26.503906 C 220.226562 26.832031 222.316406 27.046875 224.367188 27.460938 L 230.515625 28.785156 C 232.574219 29.1875 234.566406 29.859375 236.578125 30.445312 C 238.574219 31.078125 240.617188 31.570312 242.578125 32.320312 C 246.503906 33.792969 250.476562 35.148438 254.261719 36.964844 C 261.96875 40.277344 269.261719 44.480469 276.289062 49.042969 L 281.460938 52.621094 C 283.199219 53.789062 284.785156 55.175781 286.453125 56.441406 C 289.820312 58.945312 292.878906 61.816406 296.03125 64.582031 C 302.085938 70.359375 307.9375 76.398438 313 83.082031 C 315.683594 86.296875 317.941406 89.835938 320.363281 93.246094 C 321.527344 94.984375 322.554688 96.804688 323.660156 98.582031 C 324.75 100.367188 325.851562 102.144531 326.847656 104.003906 C 330.953125 111.34375 334.757812 118.84375 338.128906 126.523438 L 338.027344 126.570312 " fill-opacity="1" fill-rule="nonzero"/><path fill="rgb(100%, 87.059021%, 34.899902%)" d="M 345.71875 110.171875 C 347.003906 109.527344 348.605469 110.125 349.292969 111.507812 C 349.976562 112.898438 349.445312 114.542969 348.148438 115.152344 C 346.847656 115.769531 345.277344 115.152344 344.609375 113.792969 C 343.9375 112.441406 344.433594 110.820312 345.71875 110.171875 " fill-opacity="1" fill-rule="nonzero"/><path fill="rgb(100%, 87.059021%, 34.899902%)" d="M 278.371094 66.03125 C 279.253906 64.894531 280.835938 64.648438 281.910156 65.484375 C 282.988281 66.3125 283.105469 67.886719 282.167969 69.007812 C 281.257812 70.09375 279.679688 70.335938 278.644531 69.539062 C 277.613281 68.742188 277.492188 67.171875 278.371094 66.03125 " fill-opacity="1" fill-rule="nonzero"/><path fill="rgb(100%, 87.059021%, 34.899902%)" d="M 228.488281 47.289062 C 228.71875 46.414062 229.53125 45.890625 230.300781 46.125 C 231.070312 46.351562 231.484375 47.242188 231.230469 48.109375 C 230.976562 48.976562 230.167969 49.503906 229.421875 49.28125 C 228.675781 49.054688 228.257812 48.164062 228.488281 47.289062 " fill-opacity="1" fill-rule="nonzero"/><path fill="rgb(100%, 87.059021%, 34.899902%)" d="M 244.433594 10.351562 C 244.566406 9.917969 245.082031 9.691406 245.589844 9.839844 C 246.097656 9.988281 246.398438 10.464844 246.257812 10.894531 C 246.121094 11.328125 245.601562 11.550781 245.105469 11.402344 C 244.601562 11.253906 244.300781 10.78125 244.433594 10.351562 " fill-opacity="1" fill-rule="nonzero"/><path fill="rgb(100%, 87.059021%, 34.899902%)" d="M 185.148438 13.59375 C 185.097656 12.683594 185.84375 11.910156 186.816406 11.875 C 187.792969 11.832031 188.609375 12.53125 188.648438 13.433594 C 188.679688 14.339844 187.933594 15.105469 186.976562 15.144531 C 186.019531 15.183594 185.203125 14.492188 185.148438 13.59375 " fill-opacity="1" fill-rule="nonzero"/><path fill="rgb(100%, 87.059021%, 34.899902%)" d="M 199.050781 38.242188 C 199.058594 37.789062 199.40625 37.425781 199.835938 37.429688 C 200.261719 37.429688 200.597656 37.808594 200.585938 38.261719 C 200.574219 38.714844 200.226562 39.066406 199.808594 39.070312 C 199.382812 39.066406 199.050781 38.699219 199.050781 38.242188 " fill-opacity="1" fill-rule="nonzero"/><path fill="rgb(100%, 87.059021%, 34.899902%)" d="M 291.011719 85.246094 C 291.34375 84.9375 291.828125 84.929688 292.097656 85.234375 C 292.367188 85.535156 292.316406 86.027344 291.984375 86.335938 C 291.648438 86.640625 291.164062 86.648438 290.894531 86.347656 C 290.628906 86.050781 290.683594 85.558594 291.011719 85.246094 " fill-opacity="1" fill-rule="nonzero"/><path fill="rgb(100%, 87.059021%, 34.899902%)" d="M 283.792969 35.910156 C 284.285156 35.148438 285.363281 34.996094 286.195312 35.570312 C 287.03125 36.136719 287.292969 37.210938 286.78125 37.953125 C 286.269531 38.699219 285.195312 38.851562 284.378906 38.296875 C 283.5625 37.734375 283.300781 36.667969 283.792969 35.910156 " fill-opacity="1" fill-rule="nonzero"/><path fill="rgb(100%, 87.059021%, 34.899902%)" d="M 314.648438 120.726562 C 315.050781 120.519531 315.535156 120.65625 315.734375 121.035156 C 315.933594 121.414062 315.765625 121.890625 315.363281 122.097656 C 314.960938 122.304688 314.476562 122.164062 314.277344 121.792969 C 314.082031 121.414062 314.25 120.9375 314.648438 120.726562 " fill-opacity="1" fill-rule="nonzero"/><path fill="rgb(100%, 87.059021%, 34.899902%)" d="M 319.40625 82 C 320.113281 81.460938 321.222656 81.59375 321.753906 82.386719 C 322.300781 83.167969 322.152344 84.230469 321.417969 84.761719 C 320.683594 85.289062 319.652344 85.101562 319.117188 84.335938 C 318.601562 83.558594 318.671875 82.558594 319.40625 82 " fill-opacity="1" fill-rule="nonzero"/><path fill="rgb(100%, 87.059021%, 34.899902%)" d="M 180.539062 26.191406 C 163.902344 27.730469 147.175781 30.964844 132.132812 37.949219 C 117.164062 45.292969 102.949219 54.503906 90.828125 65.925781 C 78.628906 77.292969 68.546875 90.785156 59.9375 105.164062 C 55.554688 112.289062 51.296875 119.617188 47.574219 127.054688 C 43.914062 134.554688 40.738281 142.289062 38.0625 150.21875 L 37.960938 150.1875 C 40.316406 142.152344 43.355469 134.324219 46.914062 126.734375 C 50.546875 119.195312 54.730469 111.828125 58.980469 104.578125 C 67.683594 90.1875 77.886719 76.652344 90.21875 65.269531 C 102.503906 53.867188 116.839844 44.742188 131.917969 37.492188 C 147.101562 30.589844 163.871094 27.492188 180.53125 26.078125 L 180.539062 26.191406 " fill-opacity="1" fill-rule="nonzero"/><path fill="rgb(100%, 87.059021%, 34.899902%)" d="M 167.441406 13.621094 C 167.234375 12.207031 168.335938 10.839844 169.898438 10.65625 C 171.460938 10.472656 172.863281 11.480469 173.019531 12.910156 C 173.179688 14.339844 172.078125 15.644531 170.558594 15.824219 C 169.042969 16 167.644531 15.054688 167.441406 13.621094 " fill-opacity="1" fill-rule="nonzero"/><path fill="rgb(100%, 87.059021%, 34.899902%)" d="M 107.179688 67.277344 C 106.28125 66.152344 106.429688 64.566406 107.507812 63.738281 C 108.582031 62.910156 110.140625 63.175781 110.992188 64.339844 C 111.839844 65.5 111.695312 67.085938 110.664062 67.882812 C 109.632812 68.671875 108.074219 68.40625 107.179688 67.277344 " fill-opacity="1" fill-rule="nonzero"/><path fill="rgb(100%, 87.059021%, 34.899902%)" d="M 76.136719 111.945312 C 75.367188 111.46875 75.109375 110.488281 75.558594 109.753906 C 76.003906 109.011719 77.011719 108.851562 77.769531 109.335938 C 78.539062 109.828125 78.769531 110.769531 78.332031 111.5 C 77.886719 112.222656 76.90625 112.421875 76.136719 111.945312 " fill-opacity="1" fill-rule="nonzero"/><path fill="rgb(100%, 87.059021%, 34.899902%)" d="M 45.195312 86.128906 C 44.820312 85.878906 44.734375 85.34375 45.007812 84.921875 C 45.28125 84.503906 45.808594 84.367188 46.1875 84.617188 C 46.566406 84.867188 46.648438 85.40625 46.378906 85.820312 C 46.105469 86.234375 45.578125 86.371094 45.195312 86.128906 " fill-opacity="1" fill-rule="nonzero"/><path fill="rgb(100%, 87.059021%, 34.899902%)" d="M 28.171875 141.195312 C 27.320312 140.902344 26.878906 139.90625 27.191406 138.96875 C 27.496094 138.03125 28.488281 137.542969 29.335938 137.855469 C 30.1875 138.171875 30.574219 139.148438 30.28125 140.070312 C 29.972656 140.984375 29.03125 141.488281 28.171875 141.195312 " fill-opacity="1" fill-rule="nonzero"/><path fill="rgb(100%, 87.059021%, 34.899902%)" d="M 56.273438 137.878906 C 55.859375 137.699219 55.664062 137.238281 55.835938 136.855469 C 56.007812 136.46875 56.484375 136.304688 56.894531 136.496094 C 57.308594 136.679688 57.503906 137.136719 57.335938 137.519531 C 57.160156 137.898438 56.6875 138.058594 56.273438 137.878906 " fill-opacity="1" fill-rule="nonzero"/><path fill="rgb(100%, 87.059021%, 34.899902%)" d="M 129.050781 59.507812 C 128.824219 59.117188 128.933594 58.632812 129.292969 58.421875 C 129.648438 58.210938 130.121094 58.359375 130.34375 58.757812 C 130.566406 59.148438 130.457031 59.640625 130.105469 59.847656 C 129.746094 60.054688 129.277344 59.902344 129.050781 59.507812 " fill-opacity="1" fill-rule="nonzero"/><path fill="rgb(100%, 87.059021%, 34.899902%)" d="M 79.226562 54.898438 C 78.601562 54.242188 78.703125 53.148438 79.449219 52.453125 C 80.191406 51.765625 81.285156 51.75 81.890625 52.421875 C 82.496094 53.097656 82.394531 54.191406 81.667969 54.863281 C 80.941406 55.542969 79.847656 55.554688 79.226562 54.898438 " fill-opacity="1" fill-rule="nonzero"/><path fill="rgb(100%, 87.059021%, 34.899902%)" d="M 167.761719 46.40625 C 167.683594 45.960938 167.949219 45.542969 168.351562 45.472656 C 168.757812 45.40625 169.136719 45.707031 169.210938 46.15625 C 169.28125 46.601562 169.015625 47.019531 168.617188 47.09375 C 168.222656 47.160156 167.835938 46.855469 167.761719 46.40625 " fill-opacity="1" fill-rule="nonzero"/><path fill="rgb(100%, 87.059021%, 34.899902%)" d="M 132.40625 31.039062 C 132.046875 30.210938 132.488281 29.230469 133.390625 28.859375 C 134.296875 28.484375 135.289062 28.867188 135.613281 29.710938 C 135.9375 30.558594 135.496094 31.535156 134.628906 31.894531 C 133.761719 32.253906 132.765625 31.871094 132.40625 31.039062 " fill-opacity="1" fill-rule="nonzero"/><path fill="rgb(100%, 87.059021%, 34.899902%)" d="M 38.0625 150.21875 C 35.675781 158.230469 33.84375 166.402344 32.605469 174.664062 C 31.445312 182.9375 30.96875 191.292969 31.097656 199.628906 C 31.484375 216.304688 34.722656 232.882812 41.039062 248.300781 C 47.277344 263.777344 55.5625 278.527344 66.636719 290.886719 C 69.378906 293.988281 72.265625 296.964844 75.355469 299.71875 C 78.527344 302.425781 81.660156 305.226562 84.988281 307.75 C 91.539062 312.953125 98.414062 317.746094 105.628906 321.96875 L 105.574219 322.0625 C 98.1875 318.128906 91.191406 313.449219 84.539062 308.328125 C 81.15625 305.84375 77.984375 303.074219 74.753906 300.402344 C 71.597656 297.664062 68.636719 294.707031 65.800781 291.636719 C 54.667969 279.101562 46.402344 264.210938 40.207031 248.632812 C 33.96875 233.070312 30.847656 216.371094 30.589844 199.636719 C 30.53125 191.269531 31.074219 182.902344 32.300781 174.617188 C 33.605469 166.351562 35.503906 158.183594 37.960938 150.1875 L 38.0625 150.21875 " fill-opacity="1" fill-rule="nonzero"/><path fill="rgb(100%, 87.059021%, 34.899902%)" d="M 21.5625 157.800781 C 20.160156 157.472656 19.3125 155.949219 19.671875 154.394531 C 20.085938 152.855469 21.570312 151.921875 22.953125 152.300781 C 24.347656 152.679688 25.121094 154.1875 24.726562 155.675781 C 24.378906 157.175781 22.964844 158.128906 21.5625 157.800781 " fill-opacity="1" fill-rule="nonzero"/><path fill="rgb(100%, 87.059021%, 34.899902%)" d="M 48.238281 233.609375 C 46.863281 234.027344 45.460938 233.324219 45.101562 232.03125 C 44.746094 230.738281 45.582031 229.402344 46.972656 229.042969 C 48.367188 228.6875 49.777344 229.394531 50.117188 230.617188 C 50.457031 231.847656 49.613281 233.183594 48.238281 233.609375 " fill-opacity="1" fill-rule="nonzero"/><path fill="rgb(100%, 87.059021%, 34.899902%)" d="M 78.046875 277.574219 C 77.359375 278.160156 76.378906 278.171875 75.894531 277.554688 C 75.402344 276.945312 75.574219 275.996094 76.285156 275.429688 C 76.992188 274.867188 77.949219 274.882812 78.421875 275.464844 C 78.886719 276.0625 78.734375 276.984375 78.046875 277.574219 " fill-opacity="1" fill-rule="nonzero"/><path fill="rgb(100%, 87.059021%, 34.899902%)" d="M 43.757812 298.746094 C 43.402344 299.023438 42.847656 298.902344 42.523438 298.472656 C 42.195312 298.042969 42.226562 297.476562 42.589844 297.203125 C 42.949219 296.929688 43.503906 297.050781 43.824219 297.476562 C 44.144531 297.898438 44.113281 298.46875 43.757812 298.746094 " fill-opacity="1" fill-rule="nonzero"/><path fill="rgb(100%, 87.059021%, 34.899902%)" d="M 94.648438 329.75 C 94.175781 330.523438 93.121094 330.71875 92.292969 330.1875 C 91.460938 329.652344 91.183594 328.605469 91.671875 327.84375 C 92.164062 327.082031 93.21875 326.886719 94.027344 327.40625 C 94.84375 327.929688 95.117188 328.980469 94.648438 329.75 " fill-opacity="1" fill-rule="nonzero"/><path fill="rgb(100%, 87.059021%, 34.899902%)" d="M 97.414062 301.566406 C 97.148438 301.929688 96.652344 302.03125 96.304688 301.785156 C 95.957031 301.539062 95.894531 301.046875 96.160156 300.679688 C 96.429688 300.316406 96.925781 300.21875 97.269531 300.464844 C 97.613281 300.703125 97.679688 301.195312 97.414062 301.566406 " fill-opacity="1" fill-rule="nonzero"/><path fill="rgb(100%, 87.059021%, 34.899902%)" d="M 49.484375 211.046875 C 49.035156 211.097656 48.640625 210.820312 48.605469 210.421875 C 48.566406 210.023438 48.902344 209.664062 49.355469 209.617188 C 49.804688 209.574219 50.199219 209.855469 50.234375 210.246094 C 50.269531 210.640625 49.933594 211 49.484375 211.046875 " fill-opacity="1" fill-rule="nonzero"/><path fill="rgb(100%, 87.059021%, 34.899902%)" d="M 26.550781 255.121094 C 25.710938 255.460938 24.738281 254.988281 24.375 254.066406 C 24.007812 253.140625 24.398438 252.128906 25.246094 251.808594 C 26.089844 251.484375 27.066406 251.953125 27.421875 252.863281 C 27.78125 253.769531 27.390625 254.78125 26.550781 255.121094 " fill-opacity="1" fill-rule="nonzero"/><path fill="rgb(100%, 87.059021%, 34.899902%)" d="M 52.207031 169.398438 C 51.765625 169.308594 51.480469 168.914062 51.574219 168.519531 C 51.664062 168.125 52.09375 167.882812 52.535156 167.976562 C 52.980469 168.074219 53.265625 168.46875 53.175781 168.855469 C 53.085938 169.246094 52.65625 169.492188 52.207031 169.398438 " fill-opacity="1" fill-rule="nonzero"/><path fill="rgb(100%, 87.059021%, 34.899902%)" d="M 24.886719 196.625 C 23.980469 196.625 23.261719 195.847656 23.277344 194.890625 C 23.292969 193.933594 24.039062 193.179688 24.949219 193.203125 C 25.851562 193.230469 26.574219 194.003906 26.554688 194.933594 C 26.539062 195.867188 25.792969 196.625 24.886719 196.625 " fill-opacity="1" fill-rule="nonzero"/><path fill="rgb(100%, 87.059021%, 34.899902%)" d="M 105.628906 321.96875 C 112.921875 326.039062 120.515625 329.578125 128.378906 332.375 C 136.257812 335.128906 144.367188 337.199219 152.589844 338.621094 C 160.808594 340.097656 169.171875 340.679688 177.523438 340.875 C 179.617188 340.878906 181.707031 340.960938 183.796875 340.910156 L 190.070312 340.714844 C 194.246094 340.511719 198.382812 340.007812 202.539062 339.667969 C 219.101562 337.710938 235.265625 332.769531 250.269531 325.546875 C 265.382812 318.492188 279.261719 308.90625 291.613281 297.652344 L 291.6875 297.730469 C 279.769531 309.492188 265.800781 319.144531 250.757812 326.558594 C 235.609375 333.765625 219.320312 338.664062 202.644531 340.5625 C 198.460938 340.867188 194.296875 341.34375 190.105469 341.515625 L 183.804688 341.660156 C 181.707031 341.695312 179.609375 341.597656 177.507812 341.574219 C 169.125 341.316406 160.738281 340.664062 152.503906 339.117188 C 144.261719 337.628906 136.148438 335.488281 128.277344 332.667969 C 120.414062 329.800781 112.839844 326.199219 105.574219 322.0625 L 105.628906 321.96875 " fill-opacity="1" fill-rule="nonzero"/><path fill="rgb(100%, 87.059021%, 34.899902%)" d="M 109.558594 339.761719 C 108.945312 341.074219 107.261719 341.589844 105.839844 340.835938 C 104.410156 340.105469 103.785156 338.480469 104.449219 337.203125 C 105.113281 335.929688 106.769531 335.464844 108.148438 336.171875 C 109.515625 336.894531 110.164062 338.472656 109.558594 339.761719 " fill-opacity="1" fill-rule="nonzero"/><path fill="rgb(100%, 87.059021%, 34.899902%)" d="M 190.0625 328.984375 C 190.128906 330.421875 189.054688 331.617188 187.671875 331.652344 C 186.289062 331.691406 185.144531 330.554688 185.125 329.117188 C 185.101562 327.679688 186.171875 326.484375 187.515625 326.449219 C 188.859375 326.410156 189.996094 327.546875 190.0625 328.984375 " fill-opacity="1" fill-rule="nonzero"/><path fill="rgb(100%, 87.059021%, 34.899902%)" d="M 240.574219 311.011719 C 240.960938 311.851562 240.652344 312.761719 239.898438 313.074219 C 239.140625 313.378906 238.238281 312.953125 237.882812 312.121094 C 237.523438 311.292969 237.828125 310.375 238.566406 310.078125 C 239.304688 309.777344 240.203125 310.203125 240.574219 311.011719 " fill-opacity="1" fill-rule="nonzero"/><path fill="rgb(100%, 87.059021%, 34.899902%)" d="M 251.792969 349.601562 C 251.96875 350.019531 251.71875 350.519531 251.238281 350.714844 C 250.757812 350.917969 250.226562 350.738281 250.058594 350.316406 C 249.886719 349.898438 250.136719 349.402344 250.613281 349.203125 C 251.089844 349.007812 251.621094 349.183594 251.792969 349.601562 " fill-opacity="1" fill-rule="nonzero"/><path fill="rgb(100%, 87.059021%, 34.899902%)" d="M 295.863281 310.386719 C 296.464844 311.0625 296.367188 312.148438 295.636719 312.820312 C 294.917969 313.503906 293.824219 313.457031 293.230469 312.757812 C 292.65625 312.078125 292.777344 311.019531 293.480469 310.351562 C 294.195312 309.695312 295.257812 309.710938 295.863281 310.386719 " fill-opacity="1" fill-rule="nonzero"/><path fill="rgb(100%, 87.059021%, 34.899902%)" d="M 269.777344 299.558594 C 270.046875 299.914062 270.011719 300.4375 269.667969 300.679688 C 269.320312 300.921875 268.824219 300.820312 268.558594 300.453125 C 268.289062 300.089844 268.347656 299.601562 268.691406 299.367188 C 269.03125 299.128906 269.5 299.195312 269.777344 299.558594 " fill-opacity="1" fill-rule="nonzero"/><path fill="rgb(100%, 87.059021%, 34.899902%)" d="M 167.453125 322.820312 C 167.414062 323.269531 167.054688 323.597656 166.648438 323.550781 C 166.242188 323.507812 165.953125 323.105469 165.996094 322.65625 C 166.039062 322.207031 166.402344 321.878906 166.800781 321.921875 C 167.199219 321.964844 167.492188 322.367188 167.453125 322.820312 " fill-opacity="1" fill-rule="nonzero"/><path fill="rgb(100%, 87.059021%, 34.899902%)" d="M 205.433594 355.433594 C 205.550781 356.339844 204.824219 357.136719 203.8125 357.230469 C 202.804688 357.320312 201.914062 356.664062 201.820312 355.761719 C 201.726562 354.863281 202.453125 354.0625 203.4375 353.972656 C 204.421875 353.882812 205.316406 354.542969 205.433594 355.433594 " fill-opacity="1" fill-rule="nonzero"/><path fill="rgb(100%, 87.059021%, 34.899902%)" d="M 127.242188 312.128906 C 127.0625 312.542969 126.625 312.746094 126.257812 312.582031 C 125.898438 312.417969 125.75 311.957031 125.9375 311.539062 C 126.121094 311.128906 126.5625 310.925781 126.917969 311.085938 C 127.277344 311.246094 127.421875 311.714844 127.242188 312.128906 " fill-opacity="1" fill-rule="nonzero"/><path fill="rgb(100%, 87.059021%, 34.899902%)" d="M 148.460938 344.164062 C 148.292969 345.054688 147.394531 345.613281 146.457031 345.414062 C 145.519531 345.214844 144.921875 344.335938 145.113281 343.453125 C 145.308594 342.570312 146.203125 342.011719 147.117188 342.203125 C 148.03125 342.398438 148.632812 343.277344 148.460938 344.164062 " fill-opacity="1" fill-rule="nonzero"/><path fill="rgb(100%, 87.059021%, 34.899902%)" d="M 291.613281 297.652344 L 293.898438 295.511719 L 296.042969 293.21875 L 300.324219 288.648438 C 303.109375 285.535156 305.636719 282.199219 308.289062 278.980469 C 310.632812 275.523438 313.183594 272.207031 315.355469 268.644531 L 318.558594 263.273438 C 319.078125 262.371094 319.648438 261.492188 320.136719 260.570312 L 321.527344 257.773438 C 329.132812 242.945312 334.222656 226.824219 335.433594 210.214844 C 336.71875 193.632812 334.941406 176.859375 330.957031 160.652344 C 327.078125 144.390625 321.015625 128.679688 314.007812 113.425781 L 314.105469 113.375 C 321.722656 128.355469 327.804688 144.128906 332.050781 160.382812 C 335.984375 176.707031 337.699219 193.597656 336.328125 210.289062 C 334.980469 227.007812 329.722656 243.195312 321.976562 258.003906 L 320.558594 260.800781 C 320.0625 261.726562 319.484375 262.601562 318.953125 263.5 L 315.699219 268.867188 C 313.492188 272.414062 310.910156 275.722656 308.535156 279.167969 C 305.851562 282.371094 303.292969 285.691406 300.480469 288.785156 L 296.15625 293.335938 L 293.996094 295.609375 L 291.6875 297.730469 L 291.613281 297.652344 " fill-opacity="1" fill-rule="nonzero"/><path fill="rgb(100%, 87.059021%, 34.899902%)" d="M 309.757812 299.066406 C 310.828125 300.03125 310.800781 301.757812 309.703125 302.921875 C 308.605469 304.085938 306.878906 304.214844 305.851562 303.207031 C 304.824219 302.203125 304.851562 300.476562 305.910156 299.351562 C 306.96875 298.230469 308.691406 298.101562 309.757812 299.066406 " fill-opacity="1" fill-rule="nonzero"/><path fill="rgb(100%, 87.059021%, 34.899902%)" d="M 322.386719 219.976562 C 323.800781 220.230469 324.707031 221.484375 324.417969 222.785156 C 324.121094 224.082031 322.75 224.871094 321.351562 224.546875 C 319.949219 224.21875 319.035156 222.960938 319.316406 221.734375 C 319.589844 220.507812 320.96875 219.722656 322.386719 219.976562 " fill-opacity="1" fill-rule="nonzero"/><path fill="rgb(100%, 87.059021%, 34.899902%)" d="M 314.648438 167.242188 C 315.527344 167.039062 316.382812 167.53125 316.558594 168.34375 C 316.730469 169.15625 316.152344 169.964844 315.265625 170.148438 C 314.378906 170.332031 313.523438 169.839844 313.355469 169.046875 C 313.1875 168.253906 313.765625 167.445312 314.648438 167.242188 " fill-opacity="1" fill-rule="nonzero"/><path fill="rgb(100%, 87.059021%, 34.899902%)" d="M 354.8125 163.941406 C 355.253906 163.851562 355.699219 164.183594 355.804688 164.6875 C 355.914062 165.1875 355.636719 165.664062 355.191406 165.746094 C 354.75 165.832031 354.304688 165.496094 354.199219 165 C 354.09375 164.503906 354.367188 164.03125 354.8125 163.941406 " fill-opacity="1" fill-rule="nonzero"/><path fill="rgb(100%, 87.059021%, 34.899902%)" d="M 327.398438 113.09375 C 328.21875 112.714844 329.214844 113.105469 329.625 113.972656 C 330.03125 114.839844 329.695312 115.839844 328.867188 116.210938 C 328.046875 116.578125 327.042969 116.1875 326.644531 115.332031 C 326.238281 114.476562 326.574219 113.472656 327.398438 113.09375 " fill-opacity="1" fill-rule="nonzero"/><path fill="rgb(100%, 87.059021%, 34.899902%)" d="M 309.84375 135.28125 C 310.261719 135.113281 310.753906 135.292969 310.902344 135.703125 C 311.054688 136.109375 310.835938 136.570312 310.414062 136.738281 C 309.992188 136.90625 309.53125 136.714844 309.378906 136.3125 C 309.234375 135.90625 309.421875 135.453125 309.84375 135.28125 " fill-opacity="1" fill-rule="nonzero"/><path fill="rgb(100%, 87.059021%, 34.899902%)" d="M 310.773438 239.011719 C 311.195312 239.183594 311.414062 239.617188 311.261719 239.984375 C 311.113281 240.351562 310.648438 240.507812 310.234375 240.335938 C 309.816406 240.160156 309.597656 239.726562 309.746094 239.363281 C 309.894531 239 310.355469 238.847656 310.773438 239.011719 " fill-opacity="1" fill-rule="nonzero"/><path fill="rgb(100%, 87.059021%, 34.899902%)" d="M 351.414062 210.59375 C 352.320312 210.664062 353 211.554688 352.9375 212.578125 C 352.902344 213.601562 351.996094 214.351562 351.113281 214.257812 C 350.195312 214.160156 349.640625 213.277344 349.671875 212.277344 C 349.734375 211.28125 350.515625 210.527344 351.414062 210.59375 " fill-opacity="1" fill-rule="nonzero"/><path fill="rgb(100%, 87.059021%, 34.899902%)" d="M 288.554688 274.074219 C 288.898438 274.367188 288.972656 274.859375 288.71875 275.171875 C 288.464844 275.484375 287.984375 275.496094 287.644531 275.199219 C 287.300781 274.898438 287.226562 274.40625 287.480469 274.101562 C 287.726562 273.792969 288.210938 273.78125 288.554688 274.074219 " fill-opacity="1" fill-rule="nonzero"/><path fill="rgb(100%, 87.059021%, 34.899902%)" d="M 325.621094 263.417969 C 326.425781 263.855469 326.710938 264.894531 326.199219 265.707031 C 325.710938 266.527344 324.675781 266.824219 323.894531 266.367188 C 323.109375 265.914062 322.863281 264.898438 323.34375 264.101562 C 323.839844 263.308594 324.835938 262.992188 325.621094 263.417969 " fill-opacity="1" fill-rule="nonzero"/><path fill="rgb(100%, 87.059021%, 34.899902%)" d="M 314.007812 113.425781 C 312.199219 109.632812 310.15625 105.957031 308.242188 102.21875 C 306.167969 98.5625 304.160156 94.867188 302.007812 91.261719 C 299.796875 87.695312 297.75 83.980469 295.320312 80.613281 L 291.800781 75.457031 C 290.542969 73.792969 289.195312 72.199219 287.902344 70.570312 C 282.753906 64.015625 276.71875 58.214844 270.511719 52.671875 C 268.929688 51.320312 267.25 50.082031 265.621094 48.785156 C 263.953125 47.535156 262.410156 46.125 260.644531 45.007812 L 255.460938 41.527344 C 254.59375 40.953125 253.746094 40.34375 252.859375 39.800781 L 250.144531 38.253906 C 235.777344 29.898438 219.984375 23.769531 203.554688 21.277344 C 187.171875 18.574219 170.253906 19.402344 154.214844 23.816406 L 154.179688 23.707031 C 170.074219 18.644531 187.171875 17.789062 203.730469 20.167969 C 220.300781 22.757812 236.183594 29.007812 250.601562 37.484375 L 253.320312 39.058594 C 254.207031 39.613281 255.058594 40.230469 255.925781 40.8125 L 261.113281 44.359375 C 262.875 45.496094 264.421875 46.925781 266.085938 48.195312 C 267.710938 49.515625 269.386719 50.769531 270.96875 52.144531 C 277.164062 57.761719 283.179688 63.628906 288.296875 70.253906 C 289.582031 71.902344 290.921875 73.511719 292.167969 75.1875 L 295.660156 80.390625 C 298.074219 83.789062 300.085938 87.515625 302.273438 91.105469 C 304.402344 94.734375 306.378906 98.445312 308.425781 102.117188 C 310.3125 105.875 312.328125 109.570312 314.105469 113.375 L 314.007812 113.425781 " fill-opacity="1" fill-rule="nonzero"/><path fill="rgb(100%, 87.059021%, 34.899902%)" d="M 321.246094 96.847656 C 322.515625 96.171875 324.113281 96.726562 324.820312 98.082031 C 325.523438 99.445312 325.050781 101.074219 323.769531 101.726562 C 322.484375 102.378906 320.886719 101.824219 320.199219 100.492188 C 319.507812 99.15625 319.976562 97.527344 321.246094 96.847656 " fill-opacity="1" fill-rule="nonzero"/><path fill="rgb(100%, 87.059021%, 34.899902%)" d="M 253.429688 54.28125 C 254.246094 53.128906 255.871094 52.730469 256.929688 53.566406 C 257.988281 54.410156 258.132812 56.007812 257.25 57.148438 C 256.371094 58.285156 254.835938 58.554688 253.832031 57.75 C 252.820312 56.949219 252.582031 55.476562 253.429688 54.28125 " fill-opacity="1" fill-rule="nonzero"/><path fill="rgb(100%, 87.059021%, 34.899902%)" d="M 203.167969 38.800781 C 203.328125 37.910156 204.082031 37.328125 204.855469 37.492188 C 205.628906 37.664062 206.105469 38.515625 205.914062 39.398438 C 205.730469 40.285156 204.972656 40.871094 204.226562 40.710938 C 203.480469 40.546875 203.007812 39.695312 203.167969 38.800781 " fill-opacity="1" fill-rule="nonzero"/><path fill="rgb(100%, 87.059021%, 34.899902%)" d="M 216.214844 0.746094 C 216.3125 0.304688 216.820312 0.0390625 217.339844 0.152344 C 217.867188 0.269531 218.207031 0.714844 218.101562 1.15625 C 217.996094 1.59375 217.492188 1.863281 216.972656 1.75 C 216.453125 1.636719 216.117188 1.1875 216.214844 0.746094 " fill-opacity="1" fill-rule="nonzero"/><path fill="rgb(100%, 87.059021%, 34.899902%)" d="M 156.355469 10.65625 C 156.132812 9.78125 156.761719 8.863281 157.757812 8.617188 C 158.753906 8.367188 159.71875 8.886719 159.90625 9.769531 C 160.09375 10.65625 159.46875 11.566406 158.503906 11.804688 C 157.539062 12.046875 156.578125 11.535156 156.355469 10.65625 " fill-opacity="1" fill-rule="nonzero"/><path fill="rgb(100%, 87.059021%, 34.899902%)" d="M 173.863281 32.730469 C 173.808594 32.28125 174.089844 31.867188 174.488281 31.808594 C 174.882812 31.746094 175.242188 32.058594 175.289062 32.507812 C 175.335938 32.960938 175.058594 33.375 174.667969 33.433594 C 174.28125 33.496094 173.917969 33.175781 173.863281 32.730469 " fill-opacity="1" fill-rule="nonzero"/><path fill="rgb(100%, 87.059021%, 34.899902%)" d="M 266.445312 72.898438 C 266.769531 72.582031 267.25 72.5625 267.519531 72.855469 C 267.789062 73.144531 267.746094 73.632812 267.417969 73.949219 C 267.089844 74.261719 266.609375 74.285156 266.34375 73.996094 C 266.078125 73.707031 266.121094 73.21875 266.445312 72.898438 " fill-opacity="1" fill-rule="nonzero"/><path fill="rgb(100%, 87.059021%, 34.899902%)" d="M 257.4375 24.023438 C 257.894531 23.238281 258.980469 23.019531 259.863281 23.53125 C 260.742188 24.039062 261.074219 25.078125 260.597656 25.847656 C 260.121094 26.613281 259.039062 26.835938 258.175781 26.339844 C 257.3125 25.839844 256.984375 24.804688 257.4375 24.023438 " fill-opacity="1" fill-rule="nonzero"/><path fill="rgb(100%, 87.059021%, 34.899902%)" d="M 290.410156 108.101562 C 290.808594 107.886719 291.300781 108.015625 291.507812 108.394531 C 291.71875 108.769531 291.570312 109.25 291.171875 109.46875 C 290.777344 109.683594 290.285156 109.554688 290.074219 109.179688 C 289.863281 108.804688 290.015625 108.324219 290.410156 108.101562 " fill-opacity="1" fill-rule="nonzero"/><path fill="rgb(100%, 87.059021%, 34.899902%)" d="M 294.675781 69.128906 C 295.390625 68.574219 296.460938 68.734375 297.058594 69.488281 C 297.667969 70.226562 297.535156 71.289062 296.789062 71.832031 C 296.070312 72.355469 295.03125 72.171875 294.4375 71.453125 C 293.851562 70.726562 293.960938 69.683594 294.675781 69.128906 " fill-opacity="1" fill-rule="nonzero"/><g fill="rgb(100%, 87.059021%, 34.899902%)" fill-opacity="1"><g transform="translate(89.231532, 197.765692)"><g><path d="M 58.523438 -125.675781 C 70.535156 -120.941406 81.023438 -106.394531 83.558594 -96.078125 C 84.066406 -93.878906 84.40625 -92.355469 84.40625 -92.355469 C 84.40625 -92.355469 84.40625 -93.878906 84.574219 -96.078125 C 84.742188 -98.105469 84.742188 -99.628906 84.742188 -99.628906 L 84.742188 -118.742188 C 84.742188 -118.742188 84.742188 -120.601562 84.574219 -123.476562 C 84.40625 -126.523438 84.40625 -128.382812 84.40625 -128.382812 C 84.40625 -128.382812 84.066406 -126.523438 83.558594 -123.476562 C 83.050781 -120.941406 81.191406 -118.910156 78.484375 -118.910156 C 77.640625 -118.910156 76.457031 -119.082031 75.441406 -119.757812 C 67.828125 -125.339844 57.171875 -128.722656 45.5 -128.722656 C 24.695312 -128.722656 10.996094 -115.527344 10.996094 -95.570312 C 10.996094 -79.667969 23.511719 -64.445312 47.53125 -55.3125 C 68.167969 -47.363281 78.824219 -37.382812 78.824219 -28.246094 C 78.824219 -10.996094 68.335938 0.675781 52.4375 0.675781 C 29.261719 0.675781 13.699219 -20.804688 8.964844 -41.609375 C 8.964844 -41.609375 8.796875 -40.089844 8.625 -37.890625 C 8.625 -35.859375 8.457031 -34.335938 8.457031 -34.335938 L 8.457031 -12.6875 C 8.457031 -12.6875 8.625 -10.316406 8.625 -6.597656 C 8.796875 -2.875 8.964844 -0.507812 8.964844 -0.507812 C 8.964844 -0.507812 9.304688 -2.875 9.8125 -6.597656 C 10.148438 -9.304688 12.179688 -11.332031 15.054688 -11.332031 C 17.085938 -11.332031 19.28125 -10.488281 21.820312 -8.625 L 21.988281 -8.625 C 30.445312 -2.199219 41.273438 1.523438 52.4375 1.523438 C 75.949219 1.523438 91.507812 -12.347656 91.507812 -32.984375 C 91.507812 -48.546875 79.839844 -63.261719 57.171875 -71.886719 C 35.015625 -80.34375 23.679688 -91.507812 23.679688 -101.660156 C 23.679688 -117.558594 32.308594 -128.046875 45.5 -128.046875 C 49.222656 -128.046875 52.945312 -127.539062 56.496094 -126.523438 L 56.328125 -126.523438 C 56.496094 -126.523438 56.832031 -126.523438 57.003906 -126.523438 L 57.339844 -126.355469 C 57.171875 -126.355469 57.171875 -126.523438 57.003906 -126.523438 L 56.832031 -126.523438 C 57.003906 -126.523438 57.171875 -126.523438 57.339844 -126.523438 C 57.847656 -126.355469 58.355469 -126.183594 58.863281 -126.015625 L 58.863281 -125.847656 L 60.386719 -125.339844 Z M 58.523438 -125.675781 "/></g></g></g><g fill="rgb(100%, 87.059021%, 34.899902%)" fill-opacity="1"><g transform="translate(181.986057, 281.666485)"><g><path d="M 84.289062 -10.109375 C 90.980469 -0.445312 92.464844 0 121.75 0 L 121.75 -1.039062 C 107.628906 -1.039062 106.738281 -1.339844 100.789062 -10.109375 C 85.925781 -31.515625 74.925781 -47.570312 70.464844 -54.113281 C 86.074219 -57.085938 95.738281 -65.410156 95.738281 -79.980469 C 95.738281 -98.859375 80.128906 -111.496094 56.640625 -111.496094 L 13.972656 -111.496094 C 13.972656 -111.496094 12.339844 -111.195312 10.109375 -110.898438 C 7.730469 -110.601562 6.09375 -110.304688 6.09375 -110.304688 L 12.488281 -110.304688 C 17.988281 -110.304688 21.703125 -108.820312 21.703125 -100.640625 L 21.703125 -10.851562 C 21.703125 -2.675781 17.988281 -1.1875 12.488281 -1.1875 L 6.09375 -1.1875 C 6.09375 -1.1875 7.730469 -0.890625 10.109375 -0.59375 C 12.339844 -0.296875 13.972656 0 13.972656 0 L 43.707031 0 C 43.707031 0 44.597656 -0.148438 45.9375 -0.445312 L 49.207031 -0.742188 C 50.542969 -1.039062 51.4375 -1.1875 51.4375 -1.1875 L 45.191406 -1.1875 C 39.542969 -1.1875 35.828125 -2.675781 35.828125 -10.851562 L 35.828125 -52.921875 L 55.894531 -52.921875 C 58.867188 -47.570312 69.574219 -31.367188 84.289062 -10.109375 Z M 80.128906 -82.804688 C 80.128906 -64.667969 70.761719 -56.492188 56.640625 -56.492188 L 35.828125 -56.492188 L 35.828125 -108.667969 L 52.476562 -108.667969 C 69.125 -108.667969 80.128906 -98.265625 80.128906 -82.804688 Z M 80.128906 -82.804688 "/></g></g></g></svg>